<svg width="22" height="22" viewBox="0 0 22 22" fill="none" xmlns="http://www.w3.org/2000/svg">
<path d="M7.76537 19.445C6.62547 19.5741 5.8055 19.4083 5.21592 19.0777C4.5288 18.6924 4.233 18.1273 4.09695 17.7486C4.04841 17.6273 3.90348 17.3403 3.71239 17.0497C3.61693 16.9046 3.5166 16.7688 3.41916 16.6587C3.31911 16.5458 3.24249 16.4833 3.19618 16.4567C3.07313 16.3903 2.93946 16.3018 2.82126 16.2022C2.71261 16.1107 2.56767 15.9693 2.48577 15.7895C2.44229 15.694 2.40017 15.5515 2.42928 15.3858C2.46076 15.2065 2.56335 15.0686 2.68716 14.9777C2.89468 14.8253 3.17352 14.7937 3.41629 14.7901M7.76537 19.445L21.5 11C21.4993 13.2001 20.8088 15.3447 19.5255 17.1318C18.2493 18.9092 16.4506 20.2441 14.3804 20.951C14.315 20.9613 14.2783 20.9566 14.2635 20.9533C14.2608 20.9527 14.2586 20.9521 14.2569 20.9516C14.2567 20.9511 14.2565 20.9505 14.2562 20.9499C14.2528 20.9412 14.25 20.928 14.25 20.9137C14.25 20.7915 14.2515 20.5798 14.2535 20.2956C14.2546 20.1535 14.2557 19.9933 14.2569 19.817C14.2603 19.2905 14.2638 18.6259 14.2638 17.8887C14.2638 17.2212 14.1328 16.6659 13.9172 16.2279C14.92 16.0427 15.9399 15.6971 16.7698 15.0011C17.8582 14.0881 18.54 12.6426 18.54 10.4225C18.54 9.19844 18.1424 8.17845 17.4773 7.35669C17.6359 6.8075 17.8081 5.71903 17.2667 4.36555L17.1801 4.14898L16.9585 4.0762L16.8025 4.55125C16.9585 4.0762 16.958 4.07605 16.9575 4.07588L16.9565 4.07556L16.9544 4.0749L16.9501 4.07351L16.9402 4.07054C16.9331 4.06847 16.9251 4.06625 16.9161 4.06394C16.8981 4.05932 16.8764 4.05436 16.8507 4.04956C16.7993 4.03996 16.7329 4.0311 16.6509 4.02696C16.4866 4.01867 16.2628 4.02949 15.9766 4.08933C15.439 4.20172 14.685 4.48607 13.6885 5.13716C12.8289 4.91693 11.9272 4.8075 11.0275 4.8075C10.1273 4.8075 9.22516 4.91704 8.36519 5.13749C7.36897 4.49246 6.61598 4.20874 6.08004 4.09483C5.79476 4.0342 5.57197 4.02192 5.40861 4.02869C5.32709 4.03207 5.261 4.04017 5.20997 4.0491C5.18448 4.05356 5.16284 4.05822 5.145 4.06256C5.13608 4.06474 5.12812 4.06683 5.12111 4.06878L5.11132 4.07159L5.10696 4.0729L5.10491 4.07353L5.10392 4.07383C5.10344 4.07399 5.10296 4.07414 5.2525 4.55125L5.10296 4.07414L4.87643 4.14514L4.78826 4.36555C4.24681 5.71919 4.41912 6.80777 4.57778 7.3569C3.91219 8.18109 3.515 9.21166 3.515 10.4225C3.515 12.6353 4.19307 14.0803 5.27728 14.995C6.10493 15.6932 7.12304 16.0416 8.12617 16.2278C8.01945 16.4447 7.9332 16.6908 7.87414 16.9655C7.60445 17.0603 7.25465 17.1385 6.89672 17.1055C6.45437 17.0649 5.95603 16.8531 5.54468 16.1618L5.54479 16.1618L5.539 16.1525C5.41868 15.96 5.18011 15.6287 4.83831 15.3419C4.49761 15.0559 4.01314 14.7807 3.41629 14.7901M7.76537 19.445C7.7667 19.6959 7.76867 19.9325 7.77065 20.1416C7.77172 20.2552 7.77278 20.3601 7.77374 20.4546C7.77588 20.6662 7.7775 20.8256 7.7775 20.9137C7.7775 20.9303 7.77456 20.9401 7.77253 20.9449C7.76994 20.9458 7.76617 20.947 7.76092 20.9482C7.74324 20.9522 7.70504 20.9571 7.64001 20.9487C3.48565 19.5456 0.5 15.6309 0.5 11C0.5 5.19864 5.19864 0.5 11 0.5C16.8013 0.5 21.4999 5.19856 21.5 10.9999L7.76537 19.445ZM3.41629 14.7901L3.42375 15.29M3.41629 14.7901C3.41613 14.7901 3.41597 14.7901 3.41581 14.7901L3.42375 15.29M3.42375 15.29C4.29 15.2762 4.90875 16.0875 5.115 16.4175L3.4375 16.0187C3.0525 15.8125 2.5025 15.3038 3.42375 15.29Z" stroke="#CCE5E9"/>
</svg>
