<svg width="22" height="22" viewBox="0 0 22 22" fill="none" xmlns="http://www.w3.org/2000/svg">
<path d="M2.46345 17.2689L2.52165 17.0507L2.39636 16.8628L2.12387 16.454C-1.00797 11.6225 0.556444 5.08155 5.3956 2.0715C10.376 -0.941108 16.7882 0.501339 19.931 5.33895C22.9406 10.3192 21.497 16.7296 16.6595 19.8712C14.9608 20.9152 12.9974 21.4394 11.0304 21.4394C9.21344 21.4394 7.38192 20.9221 5.66599 20.0018L5.27437 19.7408L5.08644 19.6155L4.86819 19.6737L1.589 20.5481L2.46345 17.2689ZM15.2812 17.6401H15.3167L15.3519 17.6351C16.4917 17.4722 17.2887 16.8128 17.8912 15.9091C18.2748 15.3336 18.2571 14.6139 18.0866 14.1024L18.0493 13.9904L17.9658 13.907C17.8482 13.7894 17.6972 13.694 17.5689 13.6207C17.4368 13.5452 17.2893 13.4715 17.1569 13.4053L17.1503 13.402L14.9563 12.305C14.8083 12.231 14.5795 12.128 14.3077 12.1733C14.0421 12.2176 13.8447 12.3846 13.6935 12.5358L13.692 12.5373C13.5551 12.6742 13.3099 12.9194 13.0808 13.1661C12.9659 13.2898 12.8511 13.4181 12.7542 13.5364C12.6802 13.6266 12.5987 13.7321 12.538 13.8354C12.5236 13.8299 12.5069 13.8227 12.4881 13.8133L12.475 13.8068L12.4615 13.801C11.564 13.4163 10.787 12.9021 9.99672 12.2455C9.3557 11.6024 8.71559 10.8361 8.19823 10.0703C8.20684 10.0632 8.2194 10.0546 8.23732 10.0456L8.30989 10.0093L8.36726 9.95194C8.472 9.8472 8.5649 9.70751 8.62467 9.61763C8.62838 9.61205 8.63197 9.60666 8.63542 9.60149C8.71351 9.48435 8.75275 9.42933 8.77863 9.40345C8.95641 9.22567 9.18334 8.85384 9.10475 8.42297C9.14736 8.31039 9.16504 8.19482 9.16504 8.09004C9.16504 7.93439 9.12604 7.75496 9.02425 7.59685C9.01899 7.57922 9.01342 7.56153 9.00781 7.54424C8.98528 7.47476 8.95456 7.38884 8.9194 7.29434C8.84863 7.10416 8.75251 6.85958 8.64935 6.60168C8.5459 6.34306 8.43399 6.06758 8.33117 5.81481L8.30029 5.73893C8.21512 5.52957 8.13794 5.33986 8.07835 5.19127C7.99019 4.86184 7.83315 4.59019 7.55903 4.43355C7.31995 4.29693 7.06169 4.29835 6.9388 4.29902C6.93087 4.29907 6.9235 4.29911 6.91673 4.29911H6.23112C5.7775 4.29911 5.38358 4.52818 5.05484 4.85692C4.27251 5.63925 3.81141 6.72756 3.81141 7.95292V7.98061L3.81447 8.00813C3.95795 9.29945 4.38981 10.6288 5.28311 11.683C6.69726 13.7955 8.67769 15.6337 11.0917 16.7698L11.1052 16.7761L11.1189 16.7816C12.5142 17.3397 13.4159 17.5612 14.0572 17.6367C14.5206 17.6912 14.8939 17.6648 15.117 17.649C15.1873 17.644 15.2426 17.6401 15.2812 17.6401Z" stroke="#CCE5E9"/>
</svg>
