<svg width="27" height="29" viewBox="0 0 27 29" fill="none" xmlns="http://www.w3.org/2000/svg">
<path d="M6.27688 11.8356H5.72999L5.77888 12.3803L6.05742 15.4836L6.09828 15.9389H6.55542H16.7668L16.4864 19.0722L13.4897 19.8826L10.499 19.075L10.3084 16.9474L10.2676 16.492H9.81042H6.69396H6.14739L6.19593 17.0364L6.63052 21.9102L6.66126 22.255L6.99483 22.3476L13.3532 24.1122L13.4868 24.1492L13.6204 24.1122L19.9889 22.3476L20.3227 22.2552L20.3534 21.9102L21.1292 13.2136L21.1293 13.2127L21.205 12.3809L21.2051 12.38L21.7651 6.096L21.8136 5.55161H21.2671H5.71833H5.1707L5.2204 6.09699L5.50331 9.20178L5.54474 9.65641H6.00125H17.3198L17.1259 11.8356H6.27688ZM13.487 28.4811L3.81744 25.7963L0.93744 1.37891H26.0626L23.184 25.7932L13.487 28.4811Z" stroke="#27F2F2"/>
</svg>
