<svg width="32" height="32" viewBox="0 0 32 32" fill="none" xmlns="http://www.w3.org/2000/svg">
<path d="M19.4672 10.4596L20.4401 8.68411H22.8695V19.4753V19.9753H22.892C22.933 20.4609 23.0453 20.8859 23.2852 21.2142C23.6347 21.6927 24.1654 21.8553 24.7551 21.8553C26.1278 21.8553 27.1813 20.9664 27.8644 19.5639C28.544 18.1688 28.9031 16.1932 28.9031 13.7921C28.9031 10.0495 27.5332 7.23316 25.2703 5.36198C23.0208 3.50187 19.9396 2.61691 16.5743 2.61691C13.0866 2.61691 9.73462 3.7866 7.24973 6.08592C4.75821 8.39139 3.17192 11.802 3.17192 16.2113C3.17192 20.4158 4.55765 23.7197 7.05764 25.9671C9.55004 28.2078 13.0902 29.3449 17.3039 29.3449C19.9916 29.3449 21.8625 29.0651 24.5074 28.2211L24.8893 29.8109C22.2424 30.6022 19.4528 30.8393 17.2655 30.8393C11.9403 30.8393 7.91916 29.3768 5.23276 26.8518C2.54993 24.3301 1.13672 20.691 1.13672 16.2097C1.13672 11.7085 2.76874 7.95379 5.50108 5.32353C8.23523 2.69154 12.1004 1.15771 16.6127 1.15771C21.3316 1.15771 24.8865 2.56604 27.2574 4.7859C29.6274 7.00497 30.8567 10.0741 30.8567 13.4833C30.8567 16.4427 30.3893 18.9683 29.2563 20.7404C28.1482 22.4734 26.3673 23.5433 23.5631 23.5433C22.2759 23.5433 21.2773 23.2847 20.586 22.7988C19.9133 22.326 19.4789 21.6017 19.376 20.5376L18.3945 20.4595C18.0753 21.6832 17.5079 22.4292 16.7761 22.8832C16.0284 23.3472 15.0496 23.5433 13.8463 23.5433C12.3105 23.5433 10.9163 22.9551 9.89948 21.781C8.87862 20.6022 8.20232 18.7898 8.20232 16.2865C8.20232 13.7461 8.80123 11.7585 9.87443 10.4164C10.9353 9.08963 12.5029 8.33851 14.5775 8.33851C16.7779 8.33851 18.023 9.18963 18.5719 10.4227L18.9823 11.3445L19.4672 10.4596ZM19.1511 14.4065C19.1511 13.2144 18.7002 12.3253 18.0282 11.7404C17.3687 11.1664 16.5272 10.9113 15.7695 10.9113C14.9178 10.9113 14.0221 11.2599 13.3502 12.0959C12.6854 12.923 12.2759 14.1804 12.2759 15.9425C12.2759 17.3522 12.587 18.5155 13.1939 19.3397C13.8132 20.181 14.7126 20.6281 15.7695 20.6281C16.4999 20.6281 17.3421 20.3974 18.0102 19.8267C18.6929 19.2436 19.1511 18.3415 19.1511 17.0945V14.4065Z" stroke="#27F2F2"/>
</svg>
