<svg width="32" height="32" viewBox="0 0 32 32" fill="none" xmlns="http://www.w3.org/2000/svg">
<path d="M31.5 16.0893C31.5 23.5902 26.1991 29.8618 19.1667 31.3917V20.944H22.2227H22.6491L22.7164 20.523L23.4271 16.079L23.5196 15.5H22.9333H19.1667V12.8893C19.1667 12.3094 19.2735 11.9058 19.5069 11.6432C19.7303 11.3918 20.1638 11.1667 21.0667 11.1667H23.1107H23.6107V10.6667V6.57733V6.14826L23.1866 6.08313C22.0344 5.90618 20.7538 5.72267 19.556 5.72267C17.6327 5.72267 15.9432 6.31 14.7315 7.47253C13.5164 8.63829 12.8333 10.333 12.8333 12.444V15.5H9.33333H8.83333V16V20.444V20.944H9.33333H12.8333V31.3917C5.80097 29.8618 0.5 23.5889 0.5 16.0893C0.5 7.51352 7.47876 0.5 16 0.5C24.5212 0.5 31.5 7.51352 31.5 16.0893Z" stroke="#27F2F2"/>
</svg>
