<svg width="32" height="32" viewBox="0 0 32 32" fill="none" xmlns="http://www.w3.org/2000/svg">
<path d="M11.5212 28.0264C9.76203 28.2656 8.5439 28.0255 7.69795 27.5511C6.7598 27.025 6.35778 26.255 6.17182 25.7357C6.09528 25.5429 5.8754 25.1091 5.58974 24.6747C5.44701 24.4577 5.29453 24.2508 5.14348 24.0802C4.98952 23.9063 4.85794 23.7942 4.75915 23.7382C4.5922 23.6483 4.40993 23.5277 4.25006 23.393C4.09991 23.2665 3.92041 23.0872 3.82249 22.8723C3.771 22.7592 3.72551 22.5999 3.75734 22.4186C3.79154 22.2238 3.90295 22.0718 4.04312 21.9689C4.28335 21.7925 4.62508 21.7452 4.97254 21.7401M11.5212 28.0264L31.5 16C31.499 19.2477 30.4797 22.4134 28.5854 25.0515C26.6978 27.6803 24.0361 29.6534 20.9726 30.6952C20.7104 30.7415 20.6141 30.6725 20.5845 30.6458C20.5379 30.6039 20.5 30.5225 20.5 30.42C20.5 30.2413 20.5022 29.9321 20.5052 29.5182C20.5067 29.3116 20.5083 29.0789 20.51 28.8233C20.515 28.0577 20.52 27.0915 20.52 26.02C20.52 24.9307 20.2732 24.0689 19.8922 23.4346C21.4294 23.1837 22.9958 22.6945 24.2463 21.6456C25.766 20.3709 26.74 18.3394 26.74 15.16C26.74 13.3874 26.1504 11.9234 25.1688 10.7513C25.3956 10.033 25.708 8.44377 24.9042 6.4343L24.8176 6.21772L24.596 6.14495L24.44 6.62C24.596 6.14495 24.5955 6.14479 24.595 6.14463L24.594 6.1443L24.5919 6.14362L24.5872 6.14217L24.5765 6.13891C24.5686 6.13661 24.5593 6.13404 24.5487 6.13131C24.5274 6.12584 24.5007 6.11972 24.4683 6.11367C24.4037 6.10158 24.3171 6.08989 24.208 6.08438C23.9895 6.07336 23.6835 6.0873 23.2852 6.17058C22.5222 6.3301 21.4244 6.74302 19.9511 7.71759C18.6911 7.38537 17.3645 7.22 16.04 7.22C14.715 7.22 13.388 7.38549 12.1276 7.71792C10.6545 6.75249 9.55778 6.34024 8.79645 6.17842C8.39906 6.09396 8.09404 6.07797 7.87648 6.08699C7.76786 6.09149 7.68168 6.1022 7.61733 6.11347C7.58519 6.11909 7.55858 6.12485 7.53744 6.13C7.52687 6.13257 7.51767 6.13499 7.50984 6.13717L7.49913 6.14025L7.49454 6.14163L7.49243 6.14227L7.49143 6.14258C7.49094 6.14274 7.49046 6.14289 7.64 6.62L7.49046 6.14289L7.26393 6.21389L7.17576 6.4343C6.37192 8.44391 6.68447 10.0332 6.91121 10.7515C5.9291 11.9262 5.34 13.4069 5.34 15.16C5.34 18.3291 6.3087 20.36 7.82259 21.6372C9.06959 22.6892 10.6329 23.1825 12.1706 23.4346C11.9394 23.8201 11.7563 24.2908 11.6509 24.8465C11.225 25.0104 10.6298 25.164 10.0108 25.1071C9.29656 25.0414 8.50603 24.6937 7.86968 23.6243L7.86979 23.6243L7.864 23.615C7.6968 23.3475 7.36448 22.8865 6.89144 22.4895C6.41949 22.0934 5.76627 21.7276 4.97254 21.7401M11.5212 28.0264C11.523 28.4859 11.5265 28.9205 11.53 29.2947C11.5316 29.4588 11.5331 29.6107 11.5345 29.7479C11.5376 30.0567 11.54 30.2906 11.54 30.42C11.54 30.5202 11.5037 30.5957 11.4585 30.6357C11.4265 30.664 11.3255 30.7325 11.0604 30.693C4.91768 28.6279 0.5 22.844 0.5 16C0.5 7.43614 7.43614 0.5 16 0.5C24.5638 0.5 31.4999 7.43606 31.5 15.9999L11.5212 28.0264ZM4.97254 21.7401L4.98 22.24M4.97254 21.7401C4.97238 21.7401 4.97222 21.7401 4.97206 21.7401L4.98 22.24M4.98 22.24C6.24 22.22 7.14 23.4 7.44 23.88L5 23.3C4.44 23 3.64 22.26 4.98 22.24Z" stroke="#27F2F2"/>
</svg>
