<svg width="27" height="29" viewBox="0 0 27 29" fill="none" xmlns="http://www.w3.org/2000/svg">
<path d="M20.7056 11.8356H9.84948L9.65543 9.65495H20.9871H21.4444L21.4851 9.19941L21.7622 6.09608L21.8108 5.55161H21.2642H5.71833H5.17176L5.22031 6.09602L6.05739 15.4833L6.09802 15.9389H6.55542H16.7668L16.4864 19.0722L13.4897 19.8826L10.499 19.075L10.3084 16.9474L10.2676 16.492H9.81042H6.6925H6.14593L6.19448 17.0364L6.62906 21.9102L6.65981 22.255L6.99338 22.3476L13.3517 24.1122L13.4853 24.1492L13.6189 24.1122L19.9875 22.3476L20.3212 22.2552L20.352 21.9102L21.1277 13.2136L21.1278 13.2127L21.2036 12.3809L21.2532 11.8356H20.7056ZM3.816 25.7963L0.937408 1.37891H26.0626L23.1826 25.7932L13.4855 28.4811L3.816 25.7963Z" stroke="#27F2F2"/>
</svg>
