<svg width="32" height="32" viewBox="0 0 32 32" fill="none" xmlns="http://www.w3.org/2000/svg">
<path d="M10.7101 15.6999C10.7035 15.7988 10.7 15.8988 10.7 15.9999C10.7 17.4055 11.2584 18.7536 12.2523 19.7476C13.2463 20.7415 14.5944 21.2999 16 21.2999C17.4057 21.2999 18.7537 20.7415 19.7477 19.7476C20.7416 18.7536 21.3 17.4055 21.3 15.9999C21.3 15.8988 21.2965 15.7988 21.2899 15.6999H21.9V21.5951C21.9 21.6758 21.868 21.7533 21.811 21.8104C21.7541 21.8674 21.677 21.8996 21.5964 21.8999C21.5962 21.8999 21.596 21.8999 21.5958 21.8999L10.4048 21.8999C10.2362 21.8999 10.1 21.7638 10.1 21.5951V15.6999H10.7101ZM17.0334 18.494C16.7057 18.6299 16.3546 18.6998 15.9999 18.6999C15.2836 18.7001 14.5966 18.4157 14.0899 17.9093C13.5833 17.403 13.2986 16.7161 13.2984 15.9998C13.2982 15.2835 13.5826 14.5964 14.089 14.0898C14.5954 13.5832 15.2822 13.2985 15.9985 13.2983C16.3532 13.2982 16.7044 13.368 17.0321 13.5036C17.3599 13.6393 17.6576 13.8381 17.9085 14.0889C18.1593 14.3396 18.3584 14.6373 18.4942 14.9649L18.9561 14.7735L18.4942 14.9649C18.63 15.2926 18.6999 15.6437 18.7 15.9984C18.7001 16.3531 18.6303 16.7043 18.4947 17.032C18.359 17.3597 18.1602 17.6575 17.9094 17.9084C17.6587 18.1592 17.361 18.3582 17.0334 18.494ZM21.74 12.1399H19.8584V10.2599H21.74V12.1399ZM5.49241 5.49229C8.2792 2.70549 12.0589 1.13989 16 1.13989C17.9515 1.13989 19.8838 1.52426 21.6867 2.27104C23.4896 3.01783 25.1277 4.11241 26.5076 5.49229C27.8875 6.87216 28.9821 8.51032 29.7289 10.3132C30.4757 12.1161 30.86 14.0485 30.86 15.9999C30.86 17.9513 30.4757 19.8837 29.7289 21.6866C28.9821 23.4895 27.8875 25.1276 26.5076 26.5075C25.1277 27.8874 23.4896 28.982 21.6867 29.7287C19.8838 30.4755 17.9515 30.8599 16 30.8599C12.0589 30.8599 8.2792 29.2943 5.49241 26.5075C2.70562 23.7207 1.14001 19.941 1.14001 15.9999C1.14001 12.0588 2.70562 8.27908 5.49241 5.49229ZM22.2224 24.4999C23.4762 24.4999 24.5 23.476 24.5 22.2223V9.77749C24.5 8.52375 23.4762 7.49989 22.2224 7.49989H9.77761C8.52387 7.49989 7.50001 8.52375 7.50001 9.77749V22.2223C7.50001 23.476 8.52387 24.4999 9.77761 24.4999H22.2224Z" stroke="#27F2F2"/>
</svg>
