<svg width="29" height="31" viewBox="0 0 29 31" fill="none" xmlns="http://www.w3.org/2000/svg">
<path d="M10.5942 17.9166C9.93717 17.916 9.28703 18.0506 8.68422 18.3119L8.8831 18.7707L8.68421 18.3119C8.27124 18.491 7.88652 18.7269 7.5409 19.0121C7.2778 18.6971 6.95243 18.4367 6.58276 18.2486C6.19257 18.05 5.76632 17.9387 5.33331 17.9196V3.83329C5.33331 3.19235 5.58792 2.57766 6.04114 2.12445C6.49435 1.67124 7.10904 1.41663 7.74998 1.41663H16V9.66663C16 10.5728 16.36 11.4418 17.0007 12.0826C17.6414 12.7233 18.5105 13.0833 19.4166 13.0833H27.6666V27.1666C27.6666 27.8076 27.412 28.4223 26.9588 28.8755C26.5056 29.3287 25.8909 29.5833 25.25 29.5833H14.9318C15.32 28.8898 15.5416 28.0899 15.5416 27.2395V26.6956C15.5416 25.9257 15.3459 25.1869 14.9918 24.5378C15.3383 24.0431 15.5416 23.4408 15.5416 22.7916V22.7187C15.5416 21.4451 15.0357 20.2237 14.1351 19.3231C13.2346 18.4226 12.0132 17.9166 10.7396 17.9166H10.5942ZM10.5942 17.9166L10.5937 18.4166V17.9166H10.5942ZM9.24693 24.8188L9.24669 24.8186C8.62867 24.4481 8.24998 23.7795 8.24998 23.06V22.7187C8.24998 22.0971 8.49691 21.501 8.93645 21.0614C9.37599 20.6219 9.97213 20.375 10.5937 20.375H10.7396C11.3612 20.375 11.9573 20.6219 12.3968 21.0614C12.8364 21.501 13.0833 22.0971 13.0833 22.7187V22.7916C13.0833 22.9491 13.0208 23.1001 12.9094 23.2115C12.7981 23.3228 12.647 23.3854 12.4896 23.3854C12.3321 23.3854 12.1811 23.3228 12.0697 23.2115C11.9584 23.1001 11.8958 22.9491 11.8958 22.7916V22.7187C11.8958 22.4121 11.774 22.118 11.5572 21.9011C11.3403 21.6843 11.0462 21.5625 10.7396 21.5625H10.5937C10.2871 21.5625 9.99298 21.6843 9.77614 21.9011C9.5593 22.118 9.43748 22.4121 9.43748 22.7187V23.06V23.0603C9.43757 23.2092 9.47614 23.3556 9.54946 23.4853C9.62277 23.6149 9.72834 23.7235 9.85594 23.8003L9.85657 23.8007L12.0864 25.1395L12.0866 25.1396C12.3904 25.3218 12.6419 25.5796 12.8166 25.8878C12.9913 26.196 13.0831 26.5442 13.0833 26.8985V27.2395C13.0833 27.8611 12.8364 28.4573 12.3968 28.8968C11.9573 29.3364 11.3612 29.5833 10.7396 29.5833H10.5937C9.97213 29.5833 9.37599 29.3364 8.93645 28.8968C8.49691 28.4573 8.24998 27.8611 8.24998 27.2395V27.1666C8.24998 27.0092 8.31254 26.8581 8.42388 26.7468C8.53524 26.6354 8.68626 26.5729 8.84373 26.5729C9.0012 26.5729 9.15222 26.6354 9.26357 26.7468C9.37492 26.8581 9.43748 27.0092 9.43748 27.1666V27.2395C9.43748 27.5462 9.5593 27.8403 9.77614 28.0571L10.1297 27.7036L9.77614 28.0571C9.99298 28.274 10.2871 28.3958 10.5937 28.3958H10.7396C11.0462 28.3958 11.3403 28.274 11.5572 28.0571L11.2036 27.7036L11.5572 28.0571C11.774 27.8403 11.8958 27.5462 11.8958 27.2395V26.8983V26.898C11.8957 26.749 11.8572 26.6026 11.7838 26.473C11.7105 26.3433 11.605 26.2348 11.4774 26.1579L11.4767 26.1575L9.24693 24.8188ZM19.1875 9.66663V2.8529L26.2304 9.89579H19.4166C19.3559 9.89579 19.2976 9.87165 19.2546 9.82867C19.2116 9.7857 19.1875 9.72741 19.1875 9.66663ZM5.1979 20.375C5.35537 20.375 5.50639 20.4375 5.61774 20.5489C5.72909 20.6602 5.79165 20.8112 5.79165 20.9687V27.1666C5.79165 27.8076 5.53703 28.4223 5.08382 28.8755C4.63061 29.3287 4.01592 29.5833 3.37498 29.5833C2.73404 29.5833 2.11935 29.3287 1.66614 28.8755C1.21293 28.4223 0.958313 27.8076 0.958313 27.1666V26.802C0.958313 26.6446 1.02087 26.4935 1.13222 26.3822C1.24357 26.2708 1.39459 26.2083 1.55206 26.2083C1.70954 26.2083 1.86056 26.2708 1.97191 26.3822C2.08326 26.4935 2.14581 26.6446 2.14581 26.802V27.1666C2.14581 27.4926 2.27531 27.8053 2.50583 28.0358C2.73634 28.2663 3.04899 28.3958 3.37498 28.3958C3.70097 28.3958 4.01362 28.2663 4.24413 28.0358C4.47465 27.8053 4.60415 27.4926 4.60415 27.1666V20.9687C4.60415 20.8112 4.6667 20.6602 4.77805 20.5489C4.8894 20.4375 5.04042 20.375 5.1979 20.375Z" stroke="#27F2F2"/>
</svg>
