<svg width="32" height="32" viewBox="0 0 32 32" fill="none" xmlns="http://www.w3.org/2000/svg">
<path d="M12.24 22.8663H12.74V22.3663V12.3567V11.8567H12.24H9.12961H8.62961V12.3567V22.3663V22.8663H9.12961H12.24ZM12.8424 9.57109H12.8425L12.8423 9.56017C12.8302 9.00596 12.6283 8.48924 12.2448 8.10958C11.8594 7.72798 11.3235 7.51749 10.7056 7.51749C10.0893 7.51749 9.54585 7.72678 9.1536 8.10492C8.76128 8.48313 8.54801 9.00404 8.54801 9.57109C8.54801 10.708 9.40707 11.6279 10.6656 11.6279C11.3017 11.6279 11.8513 11.4135 12.2443 11.0303C12.6362 10.6481 12.8424 10.1267 12.8424 9.57109ZM23.6 22.8663H24.1V22.3663V16.4479C24.1 14.8913 23.6943 13.6784 22.9488 12.8492C22.1983 12.0144 21.1578 11.6295 20.0192 11.6295C18.7889 11.6295 17.8738 12.0908 17.2532 12.6224L17.2206 12.3042L17.1746 11.8551H16.7232H14.0208H13.4971L13.5213 12.3782C13.5628 13.2739 13.6024 14.3101 13.6024 15.5487V22.3647V22.8647H14.1024H17.2144H17.7144V22.3647V16.5935C17.7144 16.3089 17.7386 16.1092 17.7811 16.0054L17.7812 16.0054L17.7835 15.9996C17.9649 15.5402 18.3332 15.1511 18.9136 15.1511C19.3238 15.1511 19.5546 15.2987 19.7072 15.528C19.882 15.7904 19.9896 16.2173 19.9896 16.8191V22.3663V22.8663H20.4896H23.6ZM1.14001 15.9999C1.14001 7.79284 7.79296 1.13989 16 1.13989C24.2071 1.13989 30.86 7.79284 30.86 15.9999C30.86 24.207 24.2071 30.8599 16 30.8599C7.79296 30.8599 1.14001 24.207 1.14001 15.9999Z" stroke="#27F2F2"/>
</svg>
