<svg width="16" height="32" viewBox="0 0 16 32" fill="none" xmlns="http://www.w3.org/2000/svg">
<mask id="path-1-inside-1_35_643" fill="white">
<path d="M14.906 12.693C13.224 5.27598 9.24998 2.84398 8.82298 1.91198C8.35398 1.25098 7.84898 0.000976562 7.84898 0.000976562C7.84398 0.0269766 7.84398 0.0429766 7.83898 0.0689766V0.0849766C7.83898 0.105977 7.83398 0.115977 7.83398 0.136977V0.157977H7.82898V0.224977H7.82398C7.82398 0.234977 7.82398 0.250977 7.81898 0.255977V0.286977C7.81898 0.296977 7.81898 0.307977 7.81398 0.312977V0.338977C7.81398 0.354977 7.81398 0.369977 7.80898 0.380977V0.385977C7.8081 0.408937 7.80475 0.431735 7.79898 0.453977V0.463977C7.79398 0.468977 7.79398 0.473977 7.79398 0.479977V0.500977H7.78898V0.531977H7.78398V0.552977H7.77398V0.583977H7.76898V0.609977H7.76398V0.630977H7.75898V0.651977H7.75398V0.672977H7.74898V0.693977H7.74398V0.709977H7.73898V0.730977H7.73398V0.751977H7.72898C7.72398 0.751977 7.72398 0.756977 7.72398 0.756977V0.766977L7.71898 0.776977C7.71898 0.786977 7.71398 0.797977 7.70898 0.807977C7.70398 0.812977 7.70398 0.812977 7.70398 0.817977V0.827977H7.69898V0.837977H7.68898V0.863977H7.67898V0.879977H7.67398V0.884977H7.66898V0.894977H7.66398V0.910977H7.65898V0.920977H7.64898V0.936977H7.64398V0.946977H7.63898V0.956977H7.63398V0.972977H7.62898V0.982977H7.62398V0.987977H7.61898V0.997977H7.60898V1.01398H7.60398V1.01898H7.59898V1.02898H7.59398V1.04498H7.58898V1.04998H7.58398V1.05998H7.57898V1.06498H7.57398V1.08098H7.56398V1.08598H7.55898V1.09598H7.55398V1.10098H7.54898V1.11098H7.54398V1.12098C7.53898 1.12098 7.53898 1.12598 7.53898 1.12598V1.13098H7.53398L7.51798 1.15698C7.51798 1.15698 7.50798 1.16698 7.50798 1.17298C7.50298 1.17298 7.50298 1.17798 7.50298 1.17798V1.18298H7.49798V1.18798H7.49298V1.19798H7.48298V1.20298H7.47798V1.20798H7.47298V1.22298H7.46798V1.22798H7.46298V1.23298H7.45798V1.24298H7.45298V1.23298H7.44298V1.23798H7.43798V1.24798H7.43298V1.25798H7.42798V1.26298H7.42298V1.26798H7.41798V1.27298H7.41298V1.28298H7.40298V1.28798H7.39798V1.29798H7.39298V1.30298H7.38798V1.30798H7.38298V1.32398H7.37798V1.32898H7.37298V1.33398H7.36798V1.33898H7.36298V1.34398H7.35298V1.35398H7.34798V1.35898H7.34298V1.36398H7.33798V1.37398H7.33298V1.37898H7.32298V1.38398H7.31798V1.38898H7.31298V1.39898H7.30798V1.40898H7.30298V1.41398H7.29798V1.41898H7.28798V1.42398H7.28298V1.42898H7.27798V1.43898H7.27298V1.44398H7.26798V1.45398H7.26298V1.45898H7.25798V1.46398H7.25298V1.46898H7.24798V1.47398H7.23798V1.47898C7.23298 1.47898 7.23298 1.48398 7.23298 1.48398L7.22798 1.48898L7.22298 1.49398V1.50398H7.21798V1.50898H7.21298V1.51398H7.20798V1.51898H7.20298L7.19298 1.52898V1.53398C7.18298 1.53898 7.18298 1.54398 7.17198 1.55498C7.17198 1.55498 7.16198 1.56498 7.15598 1.56498C7.13998 1.57498 7.11998 1.59598 7.10398 1.61198C7.09398 1.61698 7.08298 1.62798 7.07298 1.63298C7.05198 1.65398 7.03098 1.66898 7.00998 1.68498C6.97898 1.71598 6.94698 1.73698 6.91098 1.76798H6.90598L6.66098 1.98198H6.65598C6.43198 2.17998 6.16598 2.43498 5.86398 2.73698L5.83798 2.76298C4.02498 4.63798 1.16598 8.54898 0.868984 14.867C0.837984 15.388 0.842984 15.898 0.873984 16.393V16.403C1.01998 18.893 1.80098 21.018 2.77998 22.747C3.16498 23.435 3.58698 24.06 4.01398 24.622C5.48298 26.56 6.98298 27.711 7.36298 27.992C7.95198 29.351 7.89898 31.695 7.89898 31.695L8.75798 31.981C8.75798 31.981 8.58098 29.715 8.82598 28.616C8.90398 28.277 9.08099 27.986 9.28998 27.736C9.43598 27.637 9.85298 27.335 10.353 26.877C10.379 26.851 10.395 26.83 10.416 26.804C12.442 24.913 16.229 20.257 14.932 12.674L14.906 12.693Z"/>
</mask>
<path d="M14.906 12.693C13.224 5.27598 9.24998 2.84398 8.82298 1.91198C8.35398 1.25098 7.84898 0.000976562 7.84898 0.000976562C7.84398 0.0269766 7.84398 0.0429766 7.83898 0.0689766V0.0849766C7.83898 0.105977 7.83398 0.115977 7.83398 0.136977V0.157977H7.82898V0.224977H7.82398C7.82398 0.234977 7.82398 0.250977 7.81898 0.255977V0.286977C7.81898 0.296977 7.81898 0.307977 7.81398 0.312977V0.338977C7.81398 0.354977 7.81398 0.369977 7.80898 0.380977V0.385977C7.8081 0.408937 7.80475 0.431735 7.79898 0.453977V0.463977C7.79398 0.468977 7.79398 0.473977 7.79398 0.479977V0.500977H7.78898V0.531977H7.78398V0.552977H7.77398V0.583977H7.76898V0.609977H7.76398V0.630977H7.75898V0.651977H7.75398V0.672977H7.74898V0.693977H7.74398V0.709977H7.73898V0.730977H7.73398V0.751977H7.72898C7.72398 0.751977 7.72398 0.756977 7.72398 0.756977V0.766977L7.71898 0.776977C7.71898 0.786977 7.71398 0.797977 7.70898 0.807977C7.70398 0.812977 7.70398 0.812977 7.70398 0.817977V0.827977H7.69898V0.837977H7.68898V0.863977H7.67898V0.879977H7.67398V0.884977H7.66898V0.894977H7.66398V0.910977H7.65898V0.920977H7.64898V0.936977H7.64398V0.946977H7.63898V0.956977H7.63398V0.972977H7.62898V0.982977H7.62398V0.987977H7.61898V0.997977H7.60898V1.01398H7.60398V1.01898H7.59898V1.02898H7.59398V1.04498H7.58898V1.04998H7.58398V1.05998H7.57898V1.06498H7.57398V1.08098H7.56398V1.08598H7.55898V1.09598H7.55398V1.10098H7.54898V1.11098H7.54398V1.12098C7.53898 1.12098 7.53898 1.12598 7.53898 1.12598V1.13098H7.53398L7.51798 1.15698C7.51798 1.15698 7.50798 1.16698 7.50798 1.17298C7.50298 1.17298 7.50298 1.17798 7.50298 1.17798V1.18298H7.49798V1.18798H7.49298V1.19798H7.48298V1.20298H7.47798V1.20798H7.47298V1.22298H7.46798V1.22798H7.46298V1.23298H7.45798V1.24298H7.45298V1.23298H7.44298V1.23798H7.43798V1.24798H7.43298V1.25798H7.42798V1.26298H7.42298V1.26798H7.41798V1.27298H7.41298V1.28298H7.40298V1.28798H7.39798V1.29798H7.39298V1.30298H7.38798V1.30798H7.38298V1.32398H7.37798V1.32898H7.37298V1.33398H7.36798V1.33898H7.36298V1.34398H7.35298V1.35398H7.34798V1.35898H7.34298V1.36398H7.33798V1.37398H7.33298V1.37898H7.32298V1.38398H7.31798V1.38898H7.31298V1.39898H7.30798V1.40898H7.30298V1.41398H7.29798V1.41898H7.28798V1.42398H7.28298V1.42898H7.27798V1.43898H7.27298V1.44398H7.26798V1.45398H7.26298V1.45898H7.25798V1.46398H7.25298V1.46898H7.24798V1.47398H7.23798V1.47898C7.23298 1.47898 7.23298 1.48398 7.23298 1.48398L7.22798 1.48898L7.22298 1.49398V1.50398H7.21798V1.50898H7.21298V1.51398H7.20798V1.51898H7.20298L7.19298 1.52898V1.53398C7.18298 1.53898 7.18298 1.54398 7.17198 1.55498C7.17198 1.55498 7.16198 1.56498 7.15598 1.56498C7.13998 1.57498 7.11998 1.59598 7.10398 1.61198C7.09398 1.61698 7.08298 1.62798 7.07298 1.63298C7.05198 1.65398 7.03098 1.66898 7.00998 1.68498C6.97898 1.71598 6.94698 1.73698 6.91098 1.76798H6.90598L6.66098 1.98198H6.65598C6.43198 2.17998 6.16598 2.43498 5.86398 2.73698L5.83798 2.76298C4.02498 4.63798 1.16598 8.54898 0.868984 14.867C0.837984 15.388 0.842984 15.898 0.873984 16.393V16.403C1.01998 18.893 1.80098 21.018 2.77998 22.747C3.16498 23.435 3.58698 24.06 4.01398 24.622C5.48298 26.56 6.98298 27.711 7.36298 27.992C7.95198 29.351 7.89898 31.695 7.89898 31.695L8.75798 31.981C8.75798 31.981 8.58098 29.715 8.82598 28.616C8.90398 28.277 9.08099 27.986 9.28998 27.736C9.43598 27.637 9.85298 27.335 10.353 26.877C10.379 26.851 10.395 26.83 10.416 26.804C12.442 24.913 16.229 20.257 14.932 12.674L14.906 12.693Z" stroke="#27F2F2" stroke-width="2" mask="url(#path-1-inside-1_35_643)"/>
</svg>
