<svg width="35" height="28" viewBox="0 0 35 28" fill="none" xmlns="http://www.w3.org/2000/svg">
<mask id="path-1-inside-1_35_623" fill="white">
<path d="M17.2977 24.7187C17.1828 24.7187 17.068 24.6859 16.9641 24.6312L15.9141 24.0078C15.7555 23.9203 15.832 23.8874 15.8867 23.871C16.0945 23.7999 16.1383 23.7835 16.3625 23.6523C16.3844 23.6413 16.4172 23.6468 16.4391 23.6578L17.2484 24.139C17.2758 24.1554 17.3195 24.1554 17.3469 24.139L20.5078 22.3124C20.5352 22.296 20.557 22.2632 20.557 22.2249V18.5773C20.557 18.539 20.5406 18.5062 20.5078 18.4898L17.3469 16.6687C17.3195 16.6523 17.2812 16.6523 17.2484 16.6687L14.0875 18.4898C14.0547 18.5062 14.0383 18.5445 14.0383 18.5773V22.2249C14.0383 22.2578 14.0602 22.2906 14.0875 22.307L14.9516 22.8046C15.4219 23.0398 15.7117 22.7609 15.7117 22.4874V18.8835C15.7117 18.8343 15.75 18.7906 15.8047 18.7906H16.2039C16.2531 18.7906 16.2969 18.8288 16.2969 18.8835V22.4874C16.2969 23.1163 15.9578 23.4718 15.3617 23.4718C15.1812 23.4718 15.0336 23.4718 14.6344 23.2749L13.8031 22.7992C13.6008 22.6788 13.4695 22.4601 13.4695 22.2249V18.5773C13.4695 18.3421 13.5953 18.1179 13.8031 18.0031L16.9641 16.1765C17.1664 16.0617 17.4289 16.0617 17.6258 16.1765L20.7867 18.0031C20.9891 18.1234 21.1203 18.3421 21.1203 18.5773V22.2249C21.1203 22.4601 20.9945 22.6843 20.7867 22.7992L17.6258 24.6257C17.5328 24.6859 17.418 24.7187 17.2977 24.7187ZM19.8516 21.1203C19.8516 20.4367 19.3922 20.2562 18.4187 20.1249C17.4344 19.9937 17.3359 19.9281 17.3359 19.6984C17.3359 19.507 17.418 19.2554 18.1453 19.2554C18.7961 19.2554 19.0367 19.3976 19.1352 19.8351C19.1461 19.8788 19.1789 19.9062 19.2227 19.9062H19.6328C19.6602 19.9062 19.682 19.8953 19.6984 19.8788C19.7148 19.857 19.7258 19.8351 19.7203 19.8078C19.6547 19.0531 19.157 18.7031 18.1453 18.7031C17.243 18.7031 16.707 19.0859 16.707 19.7203C16.707 20.4148 17.243 20.6007 18.107 20.6882C19.1406 20.7921 19.2227 20.9398 19.2227 21.1421C19.2227 21.4976 18.9383 21.6453 18.2711 21.6453C17.4344 21.6453 17.2484 21.4374 17.1883 21.0218C17.1828 20.9781 17.1445 20.9453 17.0953 20.9453H16.6852C16.6359 20.9453 16.5922 20.9835 16.5922 21.0382C16.5922 21.5687 16.882 22.2031 18.2656 22.2031C19.2773 22.2031 19.8516 21.8093 19.8516 21.1203ZM22.832 18.3804C22.832 18.714 22.5586 18.9874 22.225 18.9874C21.8914 18.9874 21.618 18.714 21.618 18.3804C21.618 18.0359 21.9023 17.7734 22.225 17.7734C22.5531 17.7679 22.832 18.0359 22.832 18.3804ZM22.7336 18.3804C22.7336 18.096 22.5039 17.8718 22.2195 17.8718C21.9406 17.8718 21.7109 18.096 21.7109 18.3804C21.7109 18.6648 21.9406 18.8945 22.2195 18.8945C22.5039 18.889 22.7336 18.6593 22.7336 18.3804ZM22.4875 18.7195H22.3453C22.3398 18.6867 22.318 18.5117 22.318 18.5062C22.307 18.4679 22.2961 18.446 22.2469 18.446H22.1266V18.7195H21.9953V18.0359H22.2305C22.3125 18.0359 22.4711 18.0359 22.4711 18.2163C22.4711 18.3421 22.3891 18.3695 22.3398 18.3859C22.4328 18.3913 22.4383 18.4515 22.4547 18.539C22.4602 18.5937 22.4711 18.6867 22.4875 18.7195ZM22.3344 18.2382C22.3344 18.1453 22.2688 18.1453 22.2359 18.1453H22.1266V18.3367H22.2305C22.318 18.3367 22.3344 18.2765 22.3344 18.2382ZM7.50859 10.4453C7.50859 10.2976 7.43203 10.1663 7.30625 10.0953L3.95391 8.16478C3.89922 8.13197 3.83359 8.11556 3.76797 8.11009H3.73516C3.66953 8.11009 3.60938 8.13197 3.54922 8.16478L0.202344 10.0953C0.0765625 10.1663 0 10.3031 0 10.4453L0.00546875 15.6406C0.00546875 15.7117 0.04375 15.7773 0.103906 15.8156C0.164062 15.8538 0.240625 15.8538 0.30625 15.8156L2.29688 14.6726C2.42266 14.596 2.49922 14.4648 2.49922 14.3226V11.8945C2.49922 11.7523 2.57578 11.6156 2.70156 11.5445L3.54922 11.0578C3.61484 11.0195 3.68047 11.0031 3.75156 11.0031C3.82266 11.0031 3.89375 11.0195 3.95391 11.0578L4.80156 11.5445C4.92734 11.6156 5.00391 11.7523 5.00391 11.8945V14.3226C5.00391 14.4648 5.08047 14.6015 5.20625 14.6726L7.19688 15.8156C7.25703 15.8538 7.33906 15.8538 7.39922 15.8156C7.45938 15.7828 7.49766 15.7117 7.49766 15.6406L7.50859 10.4453ZM25.8398 4.77416V14.421C25.8398 14.5632 25.7633 14.6999 25.6375 14.771L22.2852 16.707C22.1594 16.7781 22.0063 16.7781 21.8805 16.707L18.5281 14.771C18.4023 14.6999 18.3258 14.5632 18.3258 14.421V10.5492C18.3258 10.407 18.4023 10.2703 18.5281 10.1992L21.8805 8.26322C22.0063 8.19213 22.1594 8.19213 22.2852 8.26322L23.1219 8.74447C23.2148 8.79916 23.3352 8.72806 23.3352 8.62416V3.48353C23.3352 3.33041 23.4992 3.23197 23.6359 3.30853L25.632 4.42416C25.7578 4.48978 25.8398 4.6265 25.8398 4.77416ZM23.3242 11.8234C23.3242 11.7851 23.3023 11.7523 23.275 11.7359L22.1266 11.0687C22.0938 11.0523 22.0555 11.0523 22.0227 11.0687L20.8742 11.7359C20.8414 11.7523 20.825 11.7851 20.825 11.8234V13.1523C20.825 13.1906 20.8469 13.2234 20.8742 13.2398L22.0227 13.9015C22.0555 13.9179 22.0938 13.9179 22.1211 13.9015L23.2695 13.2398C23.3023 13.2234 23.3188 13.1906 23.3188 13.1523V11.8234H23.3242ZM34.7977 11.7851C34.9234 11.714 35 11.5773 35 11.4351V10.4999C35 10.3578 34.9234 10.221 34.7977 10.1499L31.4672 8.214C31.3414 8.14291 31.1883 8.14291 31.0625 8.214L27.7102 10.1499C27.5844 10.221 27.5078 10.3578 27.5078 10.4999V14.3718C27.5078 14.5195 27.5844 14.6507 27.7102 14.7218L31.0406 16.6195C31.1609 16.6906 31.3141 16.6906 31.4398 16.6195L33.4523 15.4984C33.5891 15.4218 33.5891 15.2249 33.4523 15.1484L30.0781 13.2124C30.0125 13.1742 29.9742 13.1085 29.9742 13.0374V11.8234C29.9742 11.7523 30.0125 11.6867 30.0781 11.6484L31.1281 11.0413C31.1883 11.0031 31.2703 11.0031 31.3305 11.0413L32.3805 11.6484C32.4406 11.6867 32.4844 11.7523 32.4844 11.8234V12.7749C32.4844 12.9281 32.6539 13.0265 32.7906 12.9499L34.7977 11.7851ZM30.5703 11.9765C30.5484 11.9929 30.532 12.0148 30.532 12.0421V12.7859C30.532 12.8132 30.5484 12.8406 30.5703 12.8515L31.2156 13.2234C31.2375 13.2398 31.2703 13.2398 31.2922 13.2234L31.9375 12.8515C31.9594 12.8351 31.9758 12.8132 31.9758 12.7859V12.0421C31.9758 12.0148 31.9594 11.9874 31.9375 11.9765L31.2922 11.6046C31.2703 11.5882 31.2375 11.5882 31.2156 11.6046L30.5703 11.9765ZM16.6687 14.3554V10.5054C16.6687 10.3632 16.5812 10.2265 16.4555 10.1554L13.1141 8.23041C12.9992 8.16478 12.8406 8.15384 12.7094 8.23041L9.36797 10.1554C9.24219 10.2265 9.15469 10.3578 9.15469 10.5054V14.3554C9.15469 14.5085 9.25859 14.6398 9.37344 14.7054L12.7203 16.6304C12.8516 16.707 13.0047 16.7015 13.125 16.6304L16.4609 14.7054C16.5594 14.6507 16.6305 14.5578 16.6578 14.4484C16.6633 14.421 16.6687 14.3882 16.6687 14.3554ZM12.6055 7.52494L12.5617 7.55228H12.6219L12.6055 7.52494ZM16.7727 14.6453L16.7508 14.607V14.6562L16.7727 14.6453Z"/>
</mask>
<path d="M17.2977 24.7187C17.1828 24.7187 17.068 24.6859 16.9641 24.6312L15.9141 24.0078C15.7555 23.9203 15.832 23.8874 15.8867 23.871C16.0945 23.7999 16.1383 23.7835 16.3625 23.6523C16.3844 23.6413 16.4172 23.6468 16.4391 23.6578L17.2484 24.139C17.2758 24.1554 17.3195 24.1554 17.3469 24.139L20.5078 22.3124C20.5352 22.296 20.557 22.2632 20.557 22.2249V18.5773C20.557 18.539 20.5406 18.5062 20.5078 18.4898L17.3469 16.6687C17.3195 16.6523 17.2812 16.6523 17.2484 16.6687L14.0875 18.4898C14.0547 18.5062 14.0383 18.5445 14.0383 18.5773V22.2249C14.0383 22.2578 14.0602 22.2906 14.0875 22.307L14.9516 22.8046C15.4219 23.0398 15.7117 22.7609 15.7117 22.4874V18.8835C15.7117 18.8343 15.75 18.7906 15.8047 18.7906H16.2039C16.2531 18.7906 16.2969 18.8288 16.2969 18.8835V22.4874C16.2969 23.1163 15.9578 23.4718 15.3617 23.4718C15.1812 23.4718 15.0336 23.4718 14.6344 23.2749L13.8031 22.7992C13.6008 22.6788 13.4695 22.4601 13.4695 22.2249V18.5773C13.4695 18.3421 13.5953 18.1179 13.8031 18.0031L16.9641 16.1765C17.1664 16.0617 17.4289 16.0617 17.6258 16.1765L20.7867 18.0031C20.9891 18.1234 21.1203 18.3421 21.1203 18.5773V22.2249C21.1203 22.4601 20.9945 22.6843 20.7867 22.7992L17.6258 24.6257C17.5328 24.6859 17.418 24.7187 17.2977 24.7187ZM19.8516 21.1203C19.8516 20.4367 19.3922 20.2562 18.4187 20.1249C17.4344 19.9937 17.3359 19.9281 17.3359 19.6984C17.3359 19.507 17.418 19.2554 18.1453 19.2554C18.7961 19.2554 19.0367 19.3976 19.1352 19.8351C19.1461 19.8788 19.1789 19.9062 19.2227 19.9062H19.6328C19.6602 19.9062 19.682 19.8953 19.6984 19.8788C19.7148 19.857 19.7258 19.8351 19.7203 19.8078C19.6547 19.0531 19.157 18.7031 18.1453 18.7031C17.243 18.7031 16.707 19.0859 16.707 19.7203C16.707 20.4148 17.243 20.6007 18.107 20.6882C19.1406 20.7921 19.2227 20.9398 19.2227 21.1421C19.2227 21.4976 18.9383 21.6453 18.2711 21.6453C17.4344 21.6453 17.2484 21.4374 17.1883 21.0218C17.1828 20.9781 17.1445 20.9453 17.0953 20.9453H16.6852C16.6359 20.9453 16.5922 20.9835 16.5922 21.0382C16.5922 21.5687 16.882 22.2031 18.2656 22.2031C19.2773 22.2031 19.8516 21.8093 19.8516 21.1203ZM22.832 18.3804C22.832 18.714 22.5586 18.9874 22.225 18.9874C21.8914 18.9874 21.618 18.714 21.618 18.3804C21.618 18.0359 21.9023 17.7734 22.225 17.7734C22.5531 17.7679 22.832 18.0359 22.832 18.3804ZM22.7336 18.3804C22.7336 18.096 22.5039 17.8718 22.2195 17.8718C21.9406 17.8718 21.7109 18.096 21.7109 18.3804C21.7109 18.6648 21.9406 18.8945 22.2195 18.8945C22.5039 18.889 22.7336 18.6593 22.7336 18.3804ZM22.4875 18.7195H22.3453C22.3398 18.6867 22.318 18.5117 22.318 18.5062C22.307 18.4679 22.2961 18.446 22.2469 18.446H22.1266V18.7195H21.9953V18.0359H22.2305C22.3125 18.0359 22.4711 18.0359 22.4711 18.2163C22.4711 18.3421 22.3891 18.3695 22.3398 18.3859C22.4328 18.3913 22.4383 18.4515 22.4547 18.539C22.4602 18.5937 22.4711 18.6867 22.4875 18.7195ZM22.3344 18.2382C22.3344 18.1453 22.2688 18.1453 22.2359 18.1453H22.1266V18.3367H22.2305C22.318 18.3367 22.3344 18.2765 22.3344 18.2382ZM7.50859 10.4453C7.50859 10.2976 7.43203 10.1663 7.30625 10.0953L3.95391 8.16478C3.89922 8.13197 3.83359 8.11556 3.76797 8.11009H3.73516C3.66953 8.11009 3.60938 8.13197 3.54922 8.16478L0.202344 10.0953C0.0765625 10.1663 0 10.3031 0 10.4453L0.00546875 15.6406C0.00546875 15.7117 0.04375 15.7773 0.103906 15.8156C0.164062 15.8538 0.240625 15.8538 0.30625 15.8156L2.29688 14.6726C2.42266 14.596 2.49922 14.4648 2.49922 14.3226V11.8945C2.49922 11.7523 2.57578 11.6156 2.70156 11.5445L3.54922 11.0578C3.61484 11.0195 3.68047 11.0031 3.75156 11.0031C3.82266 11.0031 3.89375 11.0195 3.95391 11.0578L4.80156 11.5445C4.92734 11.6156 5.00391 11.7523 5.00391 11.8945V14.3226C5.00391 14.4648 5.08047 14.6015 5.20625 14.6726L7.19688 15.8156C7.25703 15.8538 7.33906 15.8538 7.39922 15.8156C7.45938 15.7828 7.49766 15.7117 7.49766 15.6406L7.50859 10.4453ZM25.8398 4.77416V14.421C25.8398 14.5632 25.7633 14.6999 25.6375 14.771L22.2852 16.707C22.1594 16.7781 22.0063 16.7781 21.8805 16.707L18.5281 14.771C18.4023 14.6999 18.3258 14.5632 18.3258 14.421V10.5492C18.3258 10.407 18.4023 10.2703 18.5281 10.1992L21.8805 8.26322C22.0063 8.19213 22.1594 8.19213 22.2852 8.26322L23.1219 8.74447C23.2148 8.79916 23.3352 8.72806 23.3352 8.62416V3.48353C23.3352 3.33041 23.4992 3.23197 23.6359 3.30853L25.632 4.42416C25.7578 4.48978 25.8398 4.6265 25.8398 4.77416ZM23.3242 11.8234C23.3242 11.7851 23.3023 11.7523 23.275 11.7359L22.1266 11.0687C22.0938 11.0523 22.0555 11.0523 22.0227 11.0687L20.8742 11.7359C20.8414 11.7523 20.825 11.7851 20.825 11.8234V13.1523C20.825 13.1906 20.8469 13.2234 20.8742 13.2398L22.0227 13.9015C22.0555 13.9179 22.0938 13.9179 22.1211 13.9015L23.2695 13.2398C23.3023 13.2234 23.3188 13.1906 23.3188 13.1523V11.8234H23.3242ZM34.7977 11.7851C34.9234 11.714 35 11.5773 35 11.4351V10.4999C35 10.3578 34.9234 10.221 34.7977 10.1499L31.4672 8.214C31.3414 8.14291 31.1883 8.14291 31.0625 8.214L27.7102 10.1499C27.5844 10.221 27.5078 10.3578 27.5078 10.4999V14.3718C27.5078 14.5195 27.5844 14.6507 27.7102 14.7218L31.0406 16.6195C31.1609 16.6906 31.3141 16.6906 31.4398 16.6195L33.4523 15.4984C33.5891 15.4218 33.5891 15.2249 33.4523 15.1484L30.0781 13.2124C30.0125 13.1742 29.9742 13.1085 29.9742 13.0374V11.8234C29.9742 11.7523 30.0125 11.6867 30.0781 11.6484L31.1281 11.0413C31.1883 11.0031 31.2703 11.0031 31.3305 11.0413L32.3805 11.6484C32.4406 11.6867 32.4844 11.7523 32.4844 11.8234V12.7749C32.4844 12.9281 32.6539 13.0265 32.7906 12.9499L34.7977 11.7851ZM30.5703 11.9765C30.5484 11.9929 30.532 12.0148 30.532 12.0421V12.7859C30.532 12.8132 30.5484 12.8406 30.5703 12.8515L31.2156 13.2234C31.2375 13.2398 31.2703 13.2398 31.2922 13.2234L31.9375 12.8515C31.9594 12.8351 31.9758 12.8132 31.9758 12.7859V12.0421C31.9758 12.0148 31.9594 11.9874 31.9375 11.9765L31.2922 11.6046C31.2703 11.5882 31.2375 11.5882 31.2156 11.6046L30.5703 11.9765ZM16.6687 14.3554V10.5054C16.6687 10.3632 16.5812 10.2265 16.4555 10.1554L13.1141 8.23041C12.9992 8.16478 12.8406 8.15384 12.7094 8.23041L9.36797 10.1554C9.24219 10.2265 9.15469 10.3578 9.15469 10.5054V14.3554C9.15469 14.5085 9.25859 14.6398 9.37344 14.7054L12.7203 16.6304C12.8516 16.707 13.0047 16.7015 13.125 16.6304L16.4609 14.7054C16.5594 14.6507 16.6305 14.5578 16.6578 14.4484C16.6633 14.421 16.6687 14.3882 16.6687 14.3554ZM12.6055 7.52494L12.5617 7.55228H12.6219L12.6055 7.52494ZM16.7727 14.6453L16.7508 14.607V14.6562L16.7727 14.6453Z" stroke="#27F2F2" stroke-width="2" mask="url(#path-1-inside-1_35_623)"/>
</svg>
