<svg width="35" height="35" viewBox="0 0 35 35" fill="none" xmlns="http://www.w3.org/2000/svg">
<mask id="path-1-inside-1_35_625" fill="white">
<path d="M12.4731 3.67506C11.5489 3.61271 10.64 3.77896 9.84375 4.23834C8.78172 4.85084 8.07406 5.89756 7.69453 7.10396C7.315 8.30709 7.2275 9.69615 7.36641 11.2132C7.37953 11.3663 7.40688 11.5271 7.42547 11.6835C7.28109 11.7447 7.12797 11.8016 6.98797 11.8672C5.60547 12.5049 4.44719 13.2749 3.59297 14.2057C2.73984 15.1376 2.1875 16.2729 2.1875 17.5001C2.1875 18.7262 2.73984 19.8626 3.59297 20.7944C4.44609 21.7252 5.60547 22.4952 6.98797 23.1329C7.12797 23.1985 7.28109 23.2554 7.42547 23.3166C7.40688 23.473 7.37953 23.6338 7.36531 23.7869C7.2275 25.304 7.315 26.6919 7.69453 27.8972C8.07406 29.1026 8.78172 30.1482 9.84375 30.7618C10.9058 31.3743 12.1647 31.4651 13.3984 31.1916C14.6322 30.9182 15.878 30.298 17.1216 29.4197C17.2473 29.3322 17.3731 29.2283 17.5 29.1343C17.6258 29.2283 17.7516 29.3312 17.8784 29.4197C19.122 30.298 20.3678 30.9182 21.6016 31.1916C22.8353 31.4651 24.0942 31.3754 25.1562 30.7618C26.2183 30.1493 26.9259 29.1026 27.3055 27.8961C27.685 26.693 27.7725 25.304 27.6336 23.7869C27.6205 23.6338 27.5931 23.473 27.5745 23.3166C27.7189 23.2554 27.872 23.1985 28.012 23.1329C29.3945 22.4952 30.5528 21.7252 31.407 20.7944C32.2602 19.8626 32.8125 18.7272 32.8125 17.5001C32.8125 16.274 32.2602 15.1376 31.407 14.2057C30.5539 13.2749 29.3945 12.5049 28.012 11.8672C27.872 11.8016 27.7189 11.7447 27.5745 11.6835C27.5931 11.5271 27.6205 11.3663 27.6347 11.2132C27.7725 9.69615 27.685 8.30818 27.3055 7.10287C26.9259 5.89756 26.2183 4.85193 25.1562 4.23834C24.0942 3.62584 22.8353 3.53506 21.6016 3.80849C20.3678 4.08193 19.122 4.70209 17.8784 5.58037C17.7527 5.66787 17.6269 5.77178 17.5 5.86584C17.3742 5.77178 17.2484 5.66896 17.1216 5.58037C15.878 4.70209 14.6322 4.08193 13.3984 3.80849C13.0939 3.74024 12.7845 3.69527 12.4731 3.67396V3.67506ZM12.3309 5.85381C12.5169 5.86693 12.7148 5.89756 12.9259 5.94568C13.7528 6.12834 14.7427 6.59209 15.7872 7.31834C14.8701 8.19127 14.0201 9.132 13.2442 10.1326C11.9916 10.3034 10.7537 10.5681 9.54078 10.9244C9.43359 9.65787 9.52547 8.56849 9.77922 7.76131C10.0406 6.93443 10.43 6.42693 10.9375 6.13271C11.3181 5.91396 11.7709 5.81115 12.3298 5.85381H12.3309ZM22.6702 5.85381C23.228 5.81115 23.6819 5.91396 24.0625 6.13271C24.57 6.42584 24.9594 6.93443 25.2208 7.76131C25.4745 8.56849 25.5664 9.65787 25.4592 10.9244C24.2463 10.5681 23.0084 10.3034 21.7558 10.1326C20.9799 9.132 20.1299 8.19127 19.2128 7.31834C20.2573 6.59209 21.2472 6.12834 22.0741 5.94568C22.2852 5.89865 22.4831 5.86693 22.6702 5.85381ZM17.5 8.70521C17.8839 9.06068 18.2678 9.45553 18.6517 9.86896C18.268 9.85375 17.884 9.84537 17.5 9.84381C17.1117 9.84381 16.73 9.85584 16.3483 9.86896C16.7311 9.45553 17.1161 9.06068 17.5 8.70521ZM17.5 12.0313C18.5555 12.0313 19.5781 12.0937 20.5614 12.1976C21.1646 13.0234 21.7235 13.8807 22.2359 14.7657C22.7631 15.679 23.2203 16.5955 23.6228 17.5001C23.2092 18.4354 22.7462 19.3481 22.2359 20.2344C21.7235 21.1195 21.1646 21.9767 20.5614 22.8026C19.577 22.9065 18.5555 22.9688 17.5 22.9688C16.4445 22.9688 15.4219 22.9065 14.4386 22.8026C13.8354 21.9767 13.2765 21.1195 12.7641 20.2344C12.2369 19.3212 11.7797 18.4046 11.3772 17.5001C11.7786 16.5955 12.2369 15.679 12.7641 14.7657C13.2913 13.8524 13.8567 12.9971 14.4386 12.1976C15.4554 12.0881 16.4773 12.0326 17.5 12.0313ZM11.4669 12.6876C11.2645 13.0102 11.0633 13.3351 10.8697 13.6719C10.6792 14.0055 10.4947 14.3424 10.3162 14.6826C10.1522 14.1618 10.0081 13.6349 9.88422 13.1032C10.3841 12.949 10.9178 12.8122 11.4669 12.6876ZM23.5331 12.6876C24.0822 12.8122 24.6159 12.949 25.1158 13.1032C24.9998 13.614 24.85 14.1444 24.6838 14.6826C24.5053 14.3424 24.3208 14.0055 24.1303 13.6719C23.9371 13.3403 23.738 13.0121 23.5331 12.6876ZM7.82469 13.894C8.10469 15.0588 8.49078 16.2674 8.99172 17.5001C8.5128 18.6711 8.12269 19.8765 7.82469 21.1062C6.67516 20.5647 5.77719 19.9391 5.20625 19.3157C4.62109 18.6769 4.375 18.0863 4.375 17.5001C4.375 16.9138 4.62109 16.3232 5.20625 15.6844C5.77719 15.061 6.67516 14.4354 7.82469 13.894ZM27.1753 13.894C28.3248 14.4354 29.2228 15.061 29.7937 15.6844C30.3789 16.3232 30.625 16.9138 30.625 17.5001C30.625 18.0863 30.3789 18.6769 29.7937 19.3157C29.2228 19.9391 28.3248 20.5647 27.1753 21.1062C26.8773 19.8765 26.4872 18.6711 26.0083 17.5001C26.5092 16.2674 26.8953 15.0588 27.1753 13.894ZM17.5 14.2188C15.7008 14.2188 14.2188 15.7008 14.2188 17.5001C14.2188 19.2993 15.7008 20.7813 17.5 20.7813C19.2992 20.7813 20.7812 19.2993 20.7812 17.5001C20.7812 15.7008 19.2992 14.2188 17.5 14.2188ZM17.5 16.4063C18.1169 16.4063 18.5938 16.8832 18.5938 17.5001C18.5938 18.1169 18.1169 18.5938 17.5 18.5938C16.8831 18.5938 16.4062 18.1169 16.4062 17.5001C16.4062 16.8832 16.8831 16.4063 17.5 16.4063ZM10.3162 20.3176C10.4945 20.6544 10.675 20.9913 10.8686 21.3282C11.0633 21.6651 11.2645 21.9899 11.4669 22.3126C10.9178 22.1879 10.3841 22.0512 9.88422 21.8969C10.0002 21.3862 10.15 20.8557 10.3162 20.3176ZM24.6838 20.3176C24.85 20.8557 25.0009 21.3862 25.1158 21.8969C24.6159 22.0512 24.0822 22.1879 23.5331 22.3126C23.7355 21.9899 23.9367 21.6651 24.1314 21.3282C24.325 20.9913 24.5055 20.6544 24.6838 20.3176ZM9.54078 24.0757C10.6892 24.4147 11.9284 24.686 13.2442 24.8676C14.0612 25.9176 14.9177 26.856 15.7872 27.6818C14.7427 28.408 13.7528 28.8718 12.9259 29.0544C12.0805 29.2426 11.445 29.1594 10.9375 28.8674C10.43 28.5743 10.0406 28.0657 9.77922 27.2388C9.52547 26.4316 9.43359 25.3422 9.54078 24.0757ZM25.4592 24.0757C25.5664 25.3422 25.4745 26.4316 25.2208 27.2388C24.9594 28.0657 24.57 28.5732 24.0625 28.8674C23.555 29.1594 22.9195 29.2426 22.0741 29.0544C21.2472 28.8718 20.2573 28.408 19.2128 27.6818C20.1299 26.8088 20.9799 25.8681 21.7558 24.8676C23.0084 24.6967 24.2463 24.432 25.4592 24.0757ZM16.3483 25.1311C16.73 25.1443 17.1117 25.1563 17.5 25.1563C17.8883 25.1563 18.27 25.1443 18.6517 25.1311C18.2689 25.5446 17.8839 25.9394 17.5 26.2949C17.1014 25.9218 16.7172 25.5336 16.3483 25.1311Z"/>
</mask>
<path d="M12.4731 3.67506C11.5489 3.61271 10.64 3.77896 9.84375 4.23834C8.78172 4.85084 8.07406 5.89756 7.69453 7.10396C7.315 8.30709 7.2275 9.69615 7.36641 11.2132C7.37953 11.3663 7.40688 11.5271 7.42547 11.6835C7.28109 11.7447 7.12797 11.8016 6.98797 11.8672C5.60547 12.5049 4.44719 13.2749 3.59297 14.2057C2.73984 15.1376 2.1875 16.2729 2.1875 17.5001C2.1875 18.7262 2.73984 19.8626 3.59297 20.7944C4.44609 21.7252 5.60547 22.4952 6.98797 23.1329C7.12797 23.1985 7.28109 23.2554 7.42547 23.3166C7.40688 23.473 7.37953 23.6338 7.36531 23.7869C7.2275 25.304 7.315 26.6919 7.69453 27.8972C8.07406 29.1026 8.78172 30.1482 9.84375 30.7618C10.9058 31.3743 12.1647 31.4651 13.3984 31.1916C14.6322 30.9182 15.878 30.298 17.1216 29.4197C17.2473 29.3322 17.3731 29.2283 17.5 29.1343C17.6258 29.2283 17.7516 29.3312 17.8784 29.4197C19.122 30.298 20.3678 30.9182 21.6016 31.1916C22.8353 31.4651 24.0942 31.3754 25.1562 30.7618C26.2183 30.1493 26.9259 29.1026 27.3055 27.8961C27.685 26.693 27.7725 25.304 27.6336 23.7869C27.6205 23.6338 27.5931 23.473 27.5745 23.3166C27.7189 23.2554 27.872 23.1985 28.012 23.1329C29.3945 22.4952 30.5528 21.7252 31.407 20.7944C32.2602 19.8626 32.8125 18.7272 32.8125 17.5001C32.8125 16.274 32.2602 15.1376 31.407 14.2057C30.5539 13.2749 29.3945 12.5049 28.012 11.8672C27.872 11.8016 27.7189 11.7447 27.5745 11.6835C27.5931 11.5271 27.6205 11.3663 27.6347 11.2132C27.7725 9.69615 27.685 8.30818 27.3055 7.10287C26.9259 5.89756 26.2183 4.85193 25.1562 4.23834C24.0942 3.62584 22.8353 3.53506 21.6016 3.80849C20.3678 4.08193 19.122 4.70209 17.8784 5.58037C17.7527 5.66787 17.6269 5.77178 17.5 5.86584C17.3742 5.77178 17.2484 5.66896 17.1216 5.58037C15.878 4.70209 14.6322 4.08193 13.3984 3.80849C13.0939 3.74024 12.7845 3.69527 12.4731 3.67396V3.67506ZM12.3309 5.85381C12.5169 5.86693 12.7148 5.89756 12.9259 5.94568C13.7528 6.12834 14.7427 6.59209 15.7872 7.31834C14.8701 8.19127 14.0201 9.132 13.2442 10.1326C11.9916 10.3034 10.7537 10.5681 9.54078 10.9244C9.43359 9.65787 9.52547 8.56849 9.77922 7.76131C10.0406 6.93443 10.43 6.42693 10.9375 6.13271C11.3181 5.91396 11.7709 5.81115 12.3298 5.85381H12.3309ZM22.6702 5.85381C23.228 5.81115 23.6819 5.91396 24.0625 6.13271C24.57 6.42584 24.9594 6.93443 25.2208 7.76131C25.4745 8.56849 25.5664 9.65787 25.4592 10.9244C24.2463 10.5681 23.0084 10.3034 21.7558 10.1326C20.9799 9.132 20.1299 8.19127 19.2128 7.31834C20.2573 6.59209 21.2472 6.12834 22.0741 5.94568C22.2852 5.89865 22.4831 5.86693 22.6702 5.85381ZM17.5 8.70521C17.8839 9.06068 18.2678 9.45553 18.6517 9.86896C18.268 9.85375 17.884 9.84537 17.5 9.84381C17.1117 9.84381 16.73 9.85584 16.3483 9.86896C16.7311 9.45553 17.1161 9.06068 17.5 8.70521ZM17.5 12.0313C18.5555 12.0313 19.5781 12.0937 20.5614 12.1976C21.1646 13.0234 21.7235 13.8807 22.2359 14.7657C22.7631 15.679 23.2203 16.5955 23.6228 17.5001C23.2092 18.4354 22.7462 19.3481 22.2359 20.2344C21.7235 21.1195 21.1646 21.9767 20.5614 22.8026C19.577 22.9065 18.5555 22.9688 17.5 22.9688C16.4445 22.9688 15.4219 22.9065 14.4386 22.8026C13.8354 21.9767 13.2765 21.1195 12.7641 20.2344C12.2369 19.3212 11.7797 18.4046 11.3772 17.5001C11.7786 16.5955 12.2369 15.679 12.7641 14.7657C13.2913 13.8524 13.8567 12.9971 14.4386 12.1976C15.4554 12.0881 16.4773 12.0326 17.5 12.0313ZM11.4669 12.6876C11.2645 13.0102 11.0633 13.3351 10.8697 13.6719C10.6792 14.0055 10.4947 14.3424 10.3162 14.6826C10.1522 14.1618 10.0081 13.6349 9.88422 13.1032C10.3841 12.949 10.9178 12.8122 11.4669 12.6876ZM23.5331 12.6876C24.0822 12.8122 24.6159 12.949 25.1158 13.1032C24.9998 13.614 24.85 14.1444 24.6838 14.6826C24.5053 14.3424 24.3208 14.0055 24.1303 13.6719C23.9371 13.3403 23.738 13.0121 23.5331 12.6876ZM7.82469 13.894C8.10469 15.0588 8.49078 16.2674 8.99172 17.5001C8.5128 18.6711 8.12269 19.8765 7.82469 21.1062C6.67516 20.5647 5.77719 19.9391 5.20625 19.3157C4.62109 18.6769 4.375 18.0863 4.375 17.5001C4.375 16.9138 4.62109 16.3232 5.20625 15.6844C5.77719 15.061 6.67516 14.4354 7.82469 13.894ZM27.1753 13.894C28.3248 14.4354 29.2228 15.061 29.7937 15.6844C30.3789 16.3232 30.625 16.9138 30.625 17.5001C30.625 18.0863 30.3789 18.6769 29.7937 19.3157C29.2228 19.9391 28.3248 20.5647 27.1753 21.1062C26.8773 19.8765 26.4872 18.6711 26.0083 17.5001C26.5092 16.2674 26.8953 15.0588 27.1753 13.894ZM17.5 14.2188C15.7008 14.2188 14.2188 15.7008 14.2188 17.5001C14.2188 19.2993 15.7008 20.7813 17.5 20.7813C19.2992 20.7813 20.7812 19.2993 20.7812 17.5001C20.7812 15.7008 19.2992 14.2188 17.5 14.2188ZM17.5 16.4063C18.1169 16.4063 18.5938 16.8832 18.5938 17.5001C18.5938 18.1169 18.1169 18.5938 17.5 18.5938C16.8831 18.5938 16.4062 18.1169 16.4062 17.5001C16.4062 16.8832 16.8831 16.4063 17.5 16.4063ZM10.3162 20.3176C10.4945 20.6544 10.675 20.9913 10.8686 21.3282C11.0633 21.6651 11.2645 21.9899 11.4669 22.3126C10.9178 22.1879 10.3841 22.0512 9.88422 21.8969C10.0002 21.3862 10.15 20.8557 10.3162 20.3176ZM24.6838 20.3176C24.85 20.8557 25.0009 21.3862 25.1158 21.8969C24.6159 22.0512 24.0822 22.1879 23.5331 22.3126C23.7355 21.9899 23.9367 21.6651 24.1314 21.3282C24.325 20.9913 24.5055 20.6544 24.6838 20.3176ZM9.54078 24.0757C10.6892 24.4147 11.9284 24.686 13.2442 24.8676C14.0612 25.9176 14.9177 26.856 15.7872 27.6818C14.7427 28.408 13.7528 28.8718 12.9259 29.0544C12.0805 29.2426 11.445 29.1594 10.9375 28.8674C10.43 28.5743 10.0406 28.0657 9.77922 27.2388C9.52547 26.4316 9.43359 25.3422 9.54078 24.0757ZM25.4592 24.0757C25.5664 25.3422 25.4745 26.4316 25.2208 27.2388C24.9594 28.0657 24.57 28.5732 24.0625 28.8674C23.555 29.1594 22.9195 29.2426 22.0741 29.0544C21.2472 28.8718 20.2573 28.408 19.2128 27.6818C20.1299 26.8088 20.9799 25.8681 21.7558 24.8676C23.0084 24.6967 24.2463 24.432 25.4592 24.0757ZM16.3483 25.1311C16.73 25.1443 17.1117 25.1563 17.5 25.1563C17.8883 25.1563 18.27 25.1443 18.6517 25.1311C18.2689 25.5446 17.8839 25.9394 17.5 26.2949C17.1014 25.9218 16.7172 25.5336 16.3483 25.1311Z" stroke="#27F2F2" stroke-width="2" mask="url(#path-1-inside-1_35_625)"/>
</svg>
