<svg width="33" height="32" viewBox="0 0 33 32" fill="none" xmlns="http://www.w3.org/2000/svg">
<path d="M4.28317 25.1288L4.34136 24.9106L4.21607 24.7227L3.81782 24.1253C-0.823084 16.9673 1.49586 7.28246 8.66149 2.82621C16.0312 -1.6326 25.5245 0.501503 30.1763 7.66559C34.6322 15.0353 32.4969 24.5266 25.3329 29.1773C22.8168 30.7243 19.9102 31.5 17 31.5C14.3029 31.5 11.5911 30.7312 9.05769 29.3708L8.4774 28.984L8.28946 28.8587L8.07122 28.9169L2.90569 30.2944L4.28317 25.1288ZM23.2 25.5H23.2356L23.2708 25.495C24.8507 25.2693 25.9621 24.3583 26.8161 23.0773C27.3255 22.3132 27.3078 21.342 27.0744 20.6419L27.0371 20.5299L26.9536 20.4464C26.8045 20.2974 26.6064 20.1706 26.4231 20.0659C26.236 19.959 26.0257 19.8538 25.8307 19.7563L25.8237 19.7528L22.6237 18.1528C22.4128 18.0473 22.1368 17.9286 21.8178 17.9818C21.5051 18.0339 21.2606 18.2324 21.0465 18.4464L21.045 18.448C20.8452 18.6477 20.49 19.003 20.1587 19.3598C19.9927 19.5385 19.8288 19.7218 19.6915 19.8892C19.5618 20.0474 19.43 20.2221 19.3528 20.3764C19.3334 20.4152 19.3191 20.4256 19.3185 20.426L19.3185 20.426C19.3177 20.4266 19.3172 20.4269 19.3163 20.4272C19.3152 20.4277 19.3116 20.429 19.3043 20.43C19.2682 20.4352 19.1746 20.4283 19.0237 20.3528L19.0105 20.3462L18.997 20.3404C17.6594 19.7672 16.5052 19.0015 15.3376 18.0304C14.3732 17.0639 13.4098 15.908 12.6372 14.7543C12.6136 14.6961 12.6201 14.6557 12.6346 14.622C12.6551 14.5741 12.71 14.504 12.8237 14.4472L12.8962 14.4109L12.9536 14.3536C13.0895 14.2177 13.2133 14.0318 13.3029 13.8971C13.3074 13.8904 13.3118 13.8838 13.3161 13.8774C13.4256 13.7131 13.4963 13.6109 13.5536 13.5536C13.7918 13.3153 14.083 12.8221 13.9522 12.2642C14.0211 12.1114 14.05 11.9486 14.05 11.8C14.05 11.5989 13.997 11.3718 13.8637 11.1786C13.8543 11.1453 13.8434 11.1101 13.8319 11.0747C13.8005 10.9779 13.757 10.8561 13.7062 10.7194C13.604 10.4447 13.4646 10.0901 13.3143 9.7143C13.1637 9.33779 13.0007 8.93655 12.8507 8.56785C12.8356 8.53076 12.8207 8.494 12.8059 8.45764C12.6791 8.14615 12.5642 7.86369 12.4763 7.64431C12.3572 7.1908 12.1536 6.85474 11.8231 6.66588C11.5299 6.49835 11.2102 6.49936 11.029 6.49994C11.0189 6.49997 11.0093 6.5 11 6.5H10C9.42067 6.5 8.90099 6.79195 8.44649 7.24645C7.34978 8.34317 6.70005 9.87162 6.70005 11.6V11.6277L6.70311 11.6552C6.90945 13.5124 7.52991 15.4077 8.8006 16.9022C10.8435 19.9577 13.7042 22.6134 17.1871 24.2524L17.2006 24.2587L17.2144 24.2642C19.2384 25.0739 20.5331 25.3897 21.4416 25.4966C22.0909 25.573 22.5857 25.5381 22.9152 25.5148C23.0306 25.5067 23.1257 25.5 23.2 25.5Z" stroke="#27F2F2"/>
</svg>
